<svg version="1.1" xmlns="http://www.w3.org/2000/svg" xmlns:xlink="http://www.w3.org/1999/xlink" width="800" height="800"><defs/><g transform="scale(2,2)"><g id="background-7010e3fa"><rect fill="white" stroke="none" x="0" y="0" width="400" height="400" class="dcg-svg-background"/></g><g id="background-images-7010e3fa"/><g id="graphpaper-7010e3fa"><g id="grid-7010e3fa"><g><path fill="none" stroke="rgb(0,0,0)" class="dcg-svg-minor-gridline" paint-order="fill stroke markers" d=" M 17.5 0 L 17.5 400" stroke-opacity="0.3" stroke-miterlimit="10" stroke-dasharray=""/><path fill="none" stroke="rgb(0,0,0)" class="dcg-svg-minor-gridline" paint-order="fill stroke markers" d=" M 37.5 0 L 37.5 400" stroke-opacity="0.3" stroke-miterlimit="10" stroke-dasharray=""/><path fill="none" stroke="rgb(0,0,0)" class="dcg-svg-minor-gridline" paint-order="fill stroke markers" d=" M 57.5 0 L 57.5 400" stroke-opacity="0.3" stroke-miterlimit="10" stroke-dasharray=""/><path fill="none" stroke="rgb(0,0,0)" class="dcg-svg-minor-gridline" paint-order="fill stroke markers" d=" M 77.5 0 L 77.5 400" stroke-opacity="0.3" stroke-miterlimit="10" stroke-dasharray=""/><path fill="none" stroke="rgb(0,0,0)" class="dcg-svg-minor-gridline" paint-order="fill stroke markers" d=" M 97.5 0 L 97.5 400" stroke-opacity="0.3" stroke-miterlimit="10" stroke-dasharray=""/><path fill="none" stroke="rgb(0,0,0)" class="dcg-svg-minor-gridline" paint-order="fill stroke markers" d=" M 117.5 0 L 117.5 400" stroke-opacity="0.3" stroke-miterlimit="10" stroke-dasharray=""/><path fill="none" stroke="rgb(0,0,0)" class="dcg-svg-minor-gridline" paint-order="fill stroke markers" d=" M 137.5 0 L 137.5 400" stroke-opacity="0.3" stroke-miterlimit="10" stroke-dasharray=""/><path fill="none" stroke="rgb(0,0,0)" class="dcg-svg-minor-gridline" paint-order="fill stroke markers" d=" M 157.5 0 L 157.5 400" stroke-opacity="0.3" stroke-miterlimit="10" stroke-dasharray=""/><path fill="none" stroke="rgb(0,0,0)" class="dcg-svg-minor-gridline" paint-order="fill stroke markers" d=" M 197.5 0 L 197.5 400" stroke-opacity="0.3" stroke-miterlimit="10" stroke-dasharray=""/><path fill="none" stroke="rgb(0,0,0)" class="dcg-svg-minor-gridline" paint-order="fill stroke markers" d=" M 217.5 0 L 217.5 400" stroke-opacity="0.3" stroke-miterlimit="10" stroke-dasharray=""/><path fill="none" stroke="rgb(0,0,0)" class="dcg-svg-minor-gridline" paint-order="fill stroke markers" d=" M 237.5 0 L 237.5 400" stroke-opacity="0.3" stroke-miterlimit="10" stroke-dasharray=""/><path fill="none" stroke="rgb(0,0,0)" class="dcg-svg-minor-gridline" paint-order="fill stroke markers" d=" M 257.5 0 L 257.5 400" stroke-opacity="0.3" stroke-miterlimit="10" stroke-dasharray=""/><path fill="none" stroke="rgb(0,0,0)" class="dcg-svg-minor-gridline" paint-order="fill stroke markers" d=" M 277.5 0 L 277.5 400" stroke-opacity="0.3" stroke-miterlimit="10" stroke-dasharray=""/><path fill="none" stroke="rgb(0,0,0)" class="dcg-svg-minor-gridline" paint-order="fill stroke markers" d=" M 297.5 0 L 297.5 400" stroke-opacity="0.3" stroke-miterlimit="10" stroke-dasharray=""/><path fill="none" stroke="rgb(0,0,0)" class="dcg-svg-minor-gridline" paint-order="fill stroke markers" d=" M 317.5 0 L 317.5 400" stroke-opacity="0.3" stroke-miterlimit="10" stroke-dasharray=""/><path fill="none" stroke="rgb(0,0,0)" class="dcg-svg-minor-gridline" paint-order="fill stroke markers" d=" M 337.5 0 L 337.5 400" stroke-opacity="0.3" stroke-miterlimit="10" stroke-dasharray=""/><path fill="none" stroke="rgb(0,0,0)" class="dcg-svg-minor-gridline" paint-order="fill stroke markers" d=" M 357.5 0 L 357.5 400" stroke-opacity="0.3" stroke-miterlimit="10" stroke-dasharray=""/><path fill="none" stroke="rgb(0,0,0)" class="dcg-svg-minor-gridline" paint-order="fill stroke markers" d=" M 377.5 0 L 377.5 400" stroke-opacity="0.3" stroke-miterlimit="10" stroke-dasharray=""/><path fill="none" stroke="rgb(0,0,0)" class="dcg-svg-minor-gridline" paint-order="fill stroke markers" d=" M 397.5 0 L 397.5 400" stroke-opacity="0.3" stroke-miterlimit="10" stroke-dasharray=""/><path fill="none" stroke="rgb(0,0,0)" class="dcg-svg-minor-gridline" paint-order="fill stroke markers" d=" M 0 390.5 L 400 390.5" stroke-opacity="0.3" stroke-miterlimit="10" stroke-dasharray=""/><path fill="none" stroke="rgb(0,0,0)" class="dcg-svg-minor-gridline" paint-order="fill stroke markers" d=" M 0 370.5 L 400 370.5" stroke-opacity="0.3" stroke-miterlimit="10" stroke-dasharray=""/><path fill="none" stroke="rgb(0,0,0)" class="dcg-svg-minor-gridline" paint-order="fill stroke markers" d=" M 0 350.5 L 400 350.5" stroke-opacity="0.3" stroke-miterlimit="10" stroke-dasharray=""/><path fill="none" stroke="rgb(0,0,0)" class="dcg-svg-minor-gridline" paint-order="fill stroke markers" d=" M 0 330.5 L 400 330.5" stroke-opacity="0.3" stroke-miterlimit="10" stroke-dasharray=""/><path fill="none" stroke="rgb(0,0,0)" class="dcg-svg-minor-gridline" paint-order="fill stroke markers" d=" M 0 310.5 L 400 310.5" stroke-opacity="0.3" stroke-miterlimit="10" stroke-dasharray=""/><path fill="none" stroke="rgb(0,0,0)" class="dcg-svg-minor-gridline" paint-order="fill stroke markers" d=" M 0 290.5 L 400 290.5" stroke-opacity="0.3" stroke-miterlimit="10" stroke-dasharray=""/><path fill="none" stroke="rgb(0,0,0)" class="dcg-svg-minor-gridline" paint-order="fill stroke markers" d=" M 0 270.5 L 400 270.5" stroke-opacity="0.3" stroke-miterlimit="10" stroke-dasharray=""/><path fill="none" stroke="rgb(0,0,0)" class="dcg-svg-minor-gridline" paint-order="fill stroke markers" d=" M 0 250.5 L 400 250.5" stroke-opacity="0.3" stroke-miterlimit="10" stroke-dasharray=""/><path fill="none" stroke="rgb(0,0,0)" class="dcg-svg-minor-gridline" paint-order="fill stroke markers" d=" M 0 230.5 L 400 230.5" stroke-opacity="0.3" stroke-miterlimit="10" stroke-dasharray=""/><path fill="none" stroke="rgb(0,0,0)" class="dcg-svg-minor-gridline" paint-order="fill stroke markers" d=" M 0 190.5 L 400 190.5" stroke-opacity="0.3" stroke-miterlimit="10" stroke-dasharray=""/><path fill="none" stroke="rgb(0,0,0)" class="dcg-svg-minor-gridline" paint-order="fill stroke markers" d=" M 0 170.5 L 400 170.5" stroke-opacity="0.3" stroke-miterlimit="10" stroke-dasharray=""/><path fill="none" stroke="rgb(0,0,0)" class="dcg-svg-minor-gridline" paint-order="fill stroke markers" d=" M 0 150.5 L 400 150.5" stroke-opacity="0.3" stroke-miterlimit="10" stroke-dasharray=""/><path fill="none" stroke="rgb(0,0,0)" class="dcg-svg-minor-gridline" paint-order="fill stroke markers" d=" M 0 130.5 L 400 130.5" stroke-opacity="0.3" stroke-miterlimit="10" stroke-dasharray=""/><path fill="none" stroke="rgb(0,0,0)" class="dcg-svg-minor-gridline" paint-order="fill stroke markers" d=" M 0 110.5 L 400 110.5" stroke-opacity="0.3" stroke-miterlimit="10" stroke-dasharray=""/><path fill="none" stroke="rgb(0,0,0)" class="dcg-svg-minor-gridline" paint-order="fill stroke markers" d=" M 0 90.5 L 400 90.5" stroke-opacity="0.3" stroke-miterlimit="10" stroke-dasharray=""/><path fill="none" stroke="rgb(0,0,0)" class="dcg-svg-minor-gridline" paint-order="fill stroke markers" d=" M 0 70.5 L 400 70.5" stroke-opacity="0.3" stroke-miterlimit="10" stroke-dasharray=""/><path fill="none" stroke="rgb(0,0,0)" class="dcg-svg-minor-gridline" paint-order="fill stroke markers" d=" M 0 50.5 L 400 50.5" stroke-opacity="0.3" stroke-miterlimit="10" stroke-dasharray=""/><path fill="none" stroke="rgb(0,0,0)" class="dcg-svg-minor-gridline" paint-order="fill stroke markers" d=" M 0 30.5 L 400 30.5" stroke-opacity="0.3" stroke-miterlimit="10" stroke-dasharray=""/><path fill="none" stroke="rgb(0,0,0)" class="dcg-svg-minor-gridline" paint-order="fill stroke markers" d=" M 0 10.5 L 400 10.5" stroke-opacity="0.3" stroke-miterlimit="10" stroke-dasharray=""/><path fill="none" stroke="rgb(0,0,0)" class="dcg-svg-major-gridline" paint-order="fill stroke markers" d=" M 17.5 0 L 17.5 400" stroke-opacity="0.4285714285714285" stroke-miterlimit="10" stroke-dasharray=""/><path fill="none" stroke="rgb(0,0,0)" class="dcg-svg-major-gridline" paint-order="fill stroke markers" d=" M 97.5 0 L 97.5 400" stroke-opacity="0.4285714285714285" stroke-miterlimit="10" stroke-dasharray=""/><path fill="none" stroke="rgb(0,0,0)" class="dcg-svg-major-gridline" paint-order="fill stroke markers" d=" M 257.5 0 L 257.5 400" stroke-opacity="0.4285714285714285" stroke-miterlimit="10" stroke-dasharray=""/><path fill="none" stroke="rgb(0,0,0)" class="dcg-svg-major-gridline" paint-order="fill stroke markers" d=" M 337.5 0 L 337.5 400" stroke-opacity="0.4285714285714285" stroke-miterlimit="10" stroke-dasharray=""/><path fill="none" stroke="rgb(0,0,0)" class="dcg-svg-major-gridline" paint-order="fill stroke markers" d=" M 0 370 L 400 370" stroke-opacity="0.4285714285714285" stroke-miterlimit="10" stroke-dasharray=""/><path fill="none" stroke="rgb(0,0,0)" class="dcg-svg-major-gridline" paint-order="fill stroke markers" d=" M 0 290 L 400 290" stroke-opacity="0.4285714285714285" stroke-miterlimit="10" stroke-dasharray=""/><path fill="none" stroke="rgb(0,0,0)" class="dcg-svg-major-gridline" paint-order="fill stroke markers" d=" M 0 130 L 400 130" stroke-opacity="0.4285714285714285" stroke-miterlimit="10" stroke-dasharray=""/><path fill="none" stroke="rgb(0,0,0)" class="dcg-svg-major-gridline" paint-order="fill stroke markers" d=" M 0 50 L 400 50" stroke-opacity="0.4285714285714285" stroke-miterlimit="10" stroke-dasharray=""/></g></g><g id="axis-7010e3fa"><g id="yaxis-7010e3fa"><title>Y axis</title><path fill="none" stroke="rgb(0,0,0)" class="dcg-svg-axis-line" paint-order="fill stroke markers" d=" M 177 0 L 177 400" stroke-opacity="0.9" stroke-miterlimit="10" stroke-width="2" stroke-dasharray=""/></g><g id="xaxis-7010e3fa"><title>X axis</title><path fill="none" stroke="rgb(0,0,0)" class="dcg-svg-axis-line" paint-order="fill stroke markers" d=" M 0 210 L 400 210" stroke-opacity="0.9" stroke-miterlimit="10" stroke-width="2" stroke-dasharray=""/></g><g><g class="dcg-svg-axis-value"><text fill="none" stroke="#ffffff" font-family="Arial" font-size="17px" font-style="normal" font-weight="normal" text-decoration="normal" x="167.73749381051937" y="228.5465352112677" text-anchor="middle" stroke-miterlimit="2" stroke-width="3" stroke-dasharray="">0</text><text fill="#000000" stroke="none" font-family="Arial" font-size="17px" font-style="normal" font-weight="normal" text-decoration="normal" x="167.73749381051937" y="228.5465352112677" text-anchor="middle">0</text></g><g class="dcg-svg-axis-value"><text fill="none" stroke="#ffffff" font-family="Arial" font-size="17px" font-style="normal" font-weight="normal" text-decoration="normal" x="14.63422232614434" y="228.5465352112677" text-anchor="middle" stroke-miterlimit="2" stroke-width="3" stroke-dasharray="">-4</text><text fill="#000000" stroke="none" font-family="Arial" font-size="17px" font-style="normal" font-weight="normal" text-decoration="normal" x="14.63422232614434" y="228.5465352112677" text-anchor="middle">-4</text></g><g class="dcg-svg-axis-value"><text fill="none" stroke="#ffffff" font-family="Arial" font-size="17px" font-style="normal" font-weight="normal" text-decoration="normal" x="94.63422232614435" y="228.5465352112677" text-anchor="middle" stroke-miterlimit="2" stroke-width="3" stroke-dasharray="">-2</text><text fill="#000000" stroke="none" font-family="Arial" font-size="17px" font-style="normal" font-weight="normal" text-decoration="normal" x="94.63422232614435" y="228.5465352112677" text-anchor="middle">-2</text></g><g class="dcg-svg-axis-value"><text fill="none" stroke="#ffffff" font-family="Arial" font-size="17px" font-style="normal" font-weight="normal" text-decoration="normal" x="257.46478873239437" y="228.5465352112677" text-anchor="middle" stroke-miterlimit="2" stroke-width="3" stroke-dasharray="">2</text><text fill="#000000" stroke="none" font-family="Arial" font-size="17px" font-style="normal" font-weight="normal" text-decoration="normal" x="257.46478873239437" y="228.5465352112677" text-anchor="middle">2</text></g><g class="dcg-svg-axis-value"><text fill="none" stroke="#ffffff" font-family="Arial" font-size="17px" font-style="normal" font-weight="normal" text-decoration="normal" x="337.46478873239437" y="228.5465352112677" text-anchor="middle" stroke-miterlimit="2" stroke-width="3" stroke-dasharray="">4</text><text fill="#000000" stroke="none" font-family="Arial" font-size="17px" font-style="normal" font-weight="normal" text-decoration="normal" x="337.46478873239437" y="228.5465352112677" text-anchor="middle">4</text></g><g class="dcg-svg-axis-value"><text fill="none" stroke="#ffffff" font-family="Arial" font-size="17px" font-style="normal" font-weight="normal" text-decoration="normal" x="164.90692740426937" y="375.0465352112677" text-anchor="middle" stroke-miterlimit="2" stroke-width="3" stroke-dasharray="">-4</text><text fill="#000000" stroke="none" font-family="Arial" font-size="17px" font-style="normal" font-weight="normal" text-decoration="normal" x="164.90692740426937" y="375.0465352112677" text-anchor="middle">-4</text></g><g class="dcg-svg-axis-value"><text fill="none" stroke="#ffffff" font-family="Arial" font-size="17px" font-style="normal" font-weight="normal" text-decoration="normal" x="164.90692740426937" y="295.0465352112677" text-anchor="middle" stroke-miterlimit="2" stroke-width="3" stroke-dasharray="">-2</text><text fill="#000000" stroke="none" font-family="Arial" font-size="17px" font-style="normal" font-weight="normal" text-decoration="normal" x="164.90692740426937" y="295.0465352112677" text-anchor="middle">-2</text></g><g class="dcg-svg-axis-value"><text fill="none" stroke="#ffffff" font-family="Arial" font-size="17px" font-style="normal" font-weight="normal" text-decoration="normal" x="167.73749381051937" y="135.0465352112677" text-anchor="middle" stroke-miterlimit="2" stroke-width="3" stroke-dasharray="">2</text><text fill="#000000" stroke="none" font-family="Arial" font-size="17px" font-style="normal" font-weight="normal" text-decoration="normal" x="167.73749381051937" y="135.0465352112677" text-anchor="middle">2</text></g><g class="dcg-svg-axis-value"><text fill="none" stroke="#ffffff" font-family="Arial" font-size="17px" font-style="normal" font-weight="normal" text-decoration="normal" x="167.73749381051937" y="55.046535211267674" text-anchor="middle" stroke-miterlimit="2" stroke-width="3" stroke-dasharray="">4</text><text fill="#000000" stroke="none" font-family="Arial" font-size="17px" font-style="normal" font-weight="normal" text-decoration="normal" x="167.73749381051937" y="55.046535211267674" text-anchor="middle">4</text></g></g></g></g><g id="expressions-7010e3fa"><g id="sketch-7010e3fa"><title>Expression 1</title><path fill="#c74440" stroke="none" paint-order="stroke fill markers" d="" fill-opacity="0.4"/><g><path fill="none" stroke="#c74440" class="dcg-svg-curve" paint-order="fill stroke markers" d=" M 0 212.98692809485217 L 0 212.98692809485217 L 11.328125000000002 215.06495111880935 L 16.113281250000004 215.64632883789204 L 20.312499999999986 215.8954011298185 L 24.218749999999986 215.86957560394455 L 28.125000000000004 215.58370536945674 L 32.22656250000001 215.0184641531116 L 37.01171875000001 214.0787750950311 L 52.73437500000001 210.73536895729967 L 56.05468750000001 210.4523737380616 L 58.98437499999999 210.4591391663953 L 61.718750000000014 210.72251791191388 L 64.35546875 211.23959439285318 L 66.99218750000001 212.03481718114674 L 69.62890625000001 213.12005083292243 L 72.36328125 214.55510981172816 L 75.29296875000001 216.43403172433693 L 78.515625 218.8801859821964 L 82.12890625000001 222.02947776250386 L 86.5234375 226.2820821554516 L 97.55859374999999 237.17243347072522 L 100.68359375 239.74859517389848 L 103.41796874999999 241.61826288790564 L 105.76171875 242.86396008830616 L 107.8125 243.63926285363368 L 109.66796875000001 244.05855218880967 L 111.37724810672408 244.1875365363436 L 113.0859375 244.0537343601438 L 114.74609375 243.6591186127165 L 116.40625000000001 242.9929962286301 L 118.16406249999999 241.98237383072865 L 120.01953125 240.5670851323867 L 121.97265625 238.68538978306543 L 123.92578124999999 236.40074281596483 L 125.87890624999999 233.71706466133998 L 127.9296875 230.4796718232897 L 130.078125 226.64503060917764 L 132.32421875 222.17954995357502 L 134.765625 216.84099450592367 L 137.5 210.3356166898153 L 140.72265625 202.08843838281462 L 144.921875 190.70493924803895 L 154.4921875 164.5442352926294 L 157.6171875 156.7226047616393 L 160.25390625 150.66747813028303 L 162.59765625000003 145.80363345863034 L 164.74609375 141.84035623195155 L 166.69921875 138.69324319910464 L 168.55468750000003 136.13772051562847 L 170.3125 134.13011796568134 L 171.97265625 132.61971305029726 L 173.6328125 131.4961241556585 L 175.19531250000003 130.7999637441962 L 176.56250000000003 130.48225596575304 L 177.9296875 130.4383919243558 L 179.296875 130.66860697088725 L 180.6640625 131.17166606615518 L 182.12890625 132.01033748834186 L 183.7890625 133.32911505944207 L 185.44921875 135.02911906538088 L 187.20703125 137.22974156133404 L 189.0625 139.97857232508863 L 191.015625 143.31560941077612 L 193.06640625 147.27036212284423 L 195.3125 152.07722565483758 L 197.8515625 158.02702826315172 L 200.87890625 165.694808766612 L 204.78515625 176.21697801331888 L 215.72265625 206.03515524114442 L 218.84765625 213.7733495791669 L 221.58203125 220.00028463724206 L 224.0234375 225.0513526386113 L 226.26953125 229.2258306804996 L 228.41796875 232.76348777552727 L 230.46875 235.7049624054726 L 232.421875 238.09952483418635 L 234.375 240.09170842042116 L 236.328125 241.6812246756506 L 238.28125 242.8726487660692 L 240.0390625 243.6120900639375 L 241.796875 244.04624415274807 L 243.45703125 244.1871272828081 L 245.21484374999997 244.06544586313058 L 246.97265625 243.6818511546275 L 248.92578125 242.97151984580813 L 251.07421875 241.87761515050119 L 253.51562499999997 240.28729802606938 L 256.4453125 237.97688443231934 L 259.86328125 234.86949939744707 L 264.84375 229.90025588842195 L 272.16796875 222.61782930590596 L 275.9765625 219.24022977388117 L 279.39453125 216.6044663556966 L 282.51953125 214.5823690270984 L 285.44921875 213.05110514639006 L 288.18359375 211.94840965312406 L 290.8203125 211.17978725135836 L 293.45703125 210.6877951004621 L 296.19140625 210.44812779340634 L 299.12109375 210.4635004488452 L 302.34375 210.75419931433797 L 306.0546875 211.36129540422172 L 311.23046875 212.50315919075106 L 321.38671875 214.7861214963772 L 325.78125 215.46688078558114 L 329.78515625000006 215.82526949524586 L 333.69140625 215.91257334012954 L 337.69531250000006 215.73907852105535 L 342.08984375 215.27810168762738 L 347.36328125 214.44278753399226 L 367.3828125 210.97484454065096 L 372.36328125000006 210.56184496782998 L 377.24609375 210.42278161961633 L 382.421875 210.54106541136153 L 388.57421875 210.9544554839483 L 400 212.02220656285147" stroke-linecap="round" stroke-linejoin="round" stroke-miterlimit="10" stroke-width="3.5" stroke-opacity="0.9" stroke-dasharray=""/></g></g><g id="sketch-7010e3fa"><title>Expression 2</title><path fill="#2d70b3" stroke="none" paint-order="stroke fill markers" d="" fill-opacity="0.4"/><g><path fill="none" stroke="#2d70b3" class="dcg-svg-curve" paint-order="fill stroke markers" d=" M 0 208.3239197448367 L 0 208.3239197448367 L 4.394531250000001 208.49145017105374 L 8.789062500000002 208.92124538246927 L 13.574218749999966 209.66033650365955 L 19.53125000000002 210.8655641490585 L 30.95703124999999 213.23260425238396 L 35.25390625000001 213.80729620676843 L 38.86718750000001 214.03495562066138 L 42.28515625000001 213.9891416930841 L 45.50781249999999 213.68888830274744 L 48.73046875000001 213.13017558302732 L 52.14843749999999 212.26263694290398 L 55.85937500000001 211.0328172335885 L 60.351562500000014 209.23508947657584 L 73.046875 203.95309990002454 L 76.17187500000001 203.0705204818021 L 78.80859375 202.5971906727751 L 81.15234375000001 202.43219333054165 L 83.39843749999999 202.534665096334 L 85.546875 202.89819330077864 L 87.59765625000001 203.5078618298624 L 89.74609375000001 204.43930308314302 L 91.89453125 205.68411292398125 L 94.23828125 207.41029137049495 L 96.58203125000001 209.52539827995915 L 98.92578125 212.0265286266563 L 101.3671875 215.0301801580649 L 103.90624999999999 218.56104228769192 L 106.640625 222.78553462957245 L 109.66796875000001 227.90038117977502 L 113.37890625 234.64783437842067 L 119.921875 247.12921120616937 L 124.51171874999999 255.64188389572254 L 127.63671875 260.9864072758911 L 130.2734375 265.05556564716125 L 132.6171875 268.2437108232407 L 134.765625 270.74942651088884 L 136.71875 272.6382501220442 L 138.57421875 274.05739118288164 L 140.33203125 275.0406277365564 L 141.89453125 275.6036831221757 L 143.359375 275.8550637066968 L 144.82421875 275.8308478782842 L 146.19140625 275.55411075626085 L 147.65625 274.9810258164633 L 149.21875 274.05130580455557 L 150.87890625 272.70210458656646 L 152.63671875 270.86947326643843 L 154.39453125 268.62671841253314 L 156.15234375 265.9832083182064 L 158.0078125 262.77265621275944 L 159.9609375 258.9485822910991 L 162.10937500000003 254.24920150192668 L 164.453125 248.58546966124774 L 167.08984375 241.62658364739536 L 170.1171875 233.0077462436227 L 173.92578125 221.4846393292204 L 186.23046875 183.7267257941082 L 189.16015625 175.66196279523382 L 191.796875 169.0034046339004 L 194.140625 163.64865281784378 L 196.2890625 159.26249800022356 L 198.2421875 155.7441480214488 L 200.09765625 152.8391216455903 L 201.85546875 150.49562448765911 L 203.61328125 148.56027673531565 L 205.2734375 147.11311405103743 L 207.03125 145.9865146707295 L 208.59375 145.3346912717547 L 210.05859374999997 145.01960888314218 L 211.5234375 144.98648378109905 L 212.98828125 145.22917846895072 L 214.453125 145.73991356739174 L 216.11328125 146.63092014695303 L 217.96875 148.00031660928514 L 219.921875 149.84062986253647 L 221.97265625 152.17716499889394 L 224.12109375 155.02328811114822 L 226.5625 158.68593984413002 L 229.296875 163.23117037550108 L 232.6171875 169.21173595894317 L 237.98828125 179.42736975887445 L 243.75 190.24902967462194 L 247.265625 196.37762194423286 L 250.1953125 201.04860476403704 L 252.83203124999997 204.8404010413388 L 255.37109375 208.0784370294172 L 257.8125 210.78243193766826 L 260.15625 212.9862129581046 L 262.5 214.8010151500368 L 264.84375 216.2300816352933 L 267.08984375 217.24751917075682 L 269.23828125 217.9125536630784 L 271.38671875 218.2943813896624 L 273.5127869341524 218.41466602887579 L 275.78125 218.28769146449588 L 278.22265625 217.89278241923734 L 281.0546875 217.15496722181285 L 284.375 215.99777246085637 L 288.96484375 214.0802933594223 L 298.73046875 209.9378841562041 L 302.734375 208.59616295494786 L 306.25 207.70407565970686 L 309.5703125 207.1366717122014 L 312.79296875 206.84823381949488 L 316.11328125 206.81144023052497 L 319.62890625 207.033196157364 L 323.63281250000006 207.55707753248893 L 328.61328125000006 208.49301682507442 L 344.7265625 211.73259076254624 L 349.31640625 212.2603335342447 L 353.7109375 212.50104630960362 L 358.203125 212.47917950845672 L 363.0859375 212.18370451641348 L 369.04296875 211.54248377315477 L 387.5 209.3551463697456 L 393.06640625 209.0808756949019 L 398.53515625 209.07345248160794 L 400 209.11341637026243" stroke-linecap="round" stroke-linejoin="round" stroke-miterlimit="10" stroke-width="3.5" stroke-opacity="0.9" stroke-dasharray=""/></g></g></g><g id="labels-7010e3fa"/></g></svg>